<svg width="49" height="39" viewBox="0 0 49 39" fill="none" xmlns="http://www.w3.org/2000/svg">
<rect x="16.679" width="4.43035" height="36.3452" fill="#91CAFF"/>
<rect x="28.9276" y="6.9043" width="4.43035" height="21.4945" fill="#C4C4C4"/>
<path d="M24.6276 12.7664H37.658V17.1956H24.6276V12.7664Z" fill="#C4C4C4"/>
<path d="M28.9625 28.338C28.9575 29.5012 29.1817 30.6541 29.6224 31.7308C30.0631 32.8074 30.7115 33.7867 31.5308 34.6128C32.35 35.4389 33.324 36.0956 34.3971 36.5454C35.4702 36.9952 36.6215 37.2293 37.7851 37.2343L37.8041 32.8051C37.2223 32.8026 36.6467 32.6856 36.1101 32.4607C35.5736 32.2358 35.0866 31.9075 34.677 31.4944C34.2673 31.0814 33.9431 30.5917 33.7228 30.0534C33.5024 29.5151 33.3903 28.9386 33.3928 28.357L28.9625 28.338Z" fill="#C4C4C4"/>
<path d="M13.4562 16.9887C12.0135 16.6022 10.5013 16.5514 9.03594 16.8404C7.57054 17.1293 6.19087 17.7501 5.00293 18.6553C3.81498 19.5604 2.85037 20.7257 2.18318 22.0617C1.51599 23.3976 1.16398 24.8687 1.15419 26.3619C1.14439 27.8551 1.47708 29.3307 2.1267 30.6753C2.77631 32.0199 3.72556 33.1977 4.90154 34.1184C6.07751 35.039 7.44891 35.6779 8.9104 35.986C10.3719 36.2941 11.8846 36.2632 13.3322 35.8956L10.9268 26.426L13.4562 16.9887Z" fill="#90CAFF"/>
</svg>
